<svg xmlns="http://www.w3.org/2000/svg" viewBox="0 0 20.236 20.236" width="500" height="500" xml:space="preserve"><path style="fill:#836fff" d="M19.251 12.798V0H5.839C4.603 0 4.487 1.195 4.487 1.195L.98 20.236s16.46-5.704 17.424-6.091c.963-.385.847-1.347.847-1.347m-7.362.191s-1.695.232-3.2-.925V2.467h2.084v3.431s-.156.309.307 0c0 0 .616-.809 1.736-.694 0 0 2.312 0 2.273 3.354 0-.001.577 4.201-3.2 4.431m-.716-5.708v3.894s2.006.656 2.044-1.023c.037-1.676 0-2.138 0-2.138s.077-1.504-2.044-.733"/><g/><g/><g/><g/><g/><g/><g/><g/><g/><g/><g/><g/><g/><g/><g/></svg>