<svg xmlns="http://www.w3.org/2000/svg" version="1.1" xmlns:xlink="http://www.w3.org/1999/xlink" xmlns:svgjs="http://svgjs.dev/svgjs" width="500" height="542" viewBox="0 0 2000 2242"><g transform="matrix(1,0,0,1,-3.1151183800621993,0)"><svg viewBox="0 0 321 360" data-background-color="#ffffff" preserveAspectRatio="xMidYMid meet" height="2242" width="2000" xmlns="http://www.w3.org/2000/svg" xmlns:xlink="http://www.w3.org/1999/xlink"><g id="tight-bounds" transform="matrix(1,0,0,1,0.5000234999999975,0)"><svg viewBox="0 0 320 360" height="360" width="320"><g><svg></svg></g><g><svg viewBox="0 0 320 360" height="360" width="320"><g><path transform="translate(-74.99272,-51.79039) scale(4.65793,4.65793)" d="M20.6 59.9l0.8 1-0.4-1.3c-0.1-0.6-0.8 0.1-0.4 0.3M21.5 59.3c0.3 0.5 0.6 1 0.6 1.5 0 0.7 0.6 1 1.1 1.2-0.7-0.8-1.1-3-1.7-2.7M59.9 16.9c1.7 0 3.3-0.2 5.1 0.2 4.4 1.1 8.1 3.3 10.6 6.4l7 11.2c0.3 2.8 0.9 5.9 0.8 9.3 0.7 0 0.6-1 1.4-1.2-0.8 2-1.2 4.5-1.4 7.4-0.5-1.6 0-4 0.1-5.3-0.7 1.1-1.1 0.3-1.1-0.2 0.1-0.8-0.3-0.7-0.6-1-1.1-1-1.8-2.1-2.6-3.8 0.5-1.3 0.6-3.2-1-4.2-0.5-0.3-1.1-0.8-1.4-1.6-0.4-1.1-1.1-2.4-0.9-4.1 0.1-0.5-1.5 1.1-2.4 0.4-3.9-2.7-7.8-5.8-12.5-8.4-2.5 0-4.3-0.9-5.2-2-0.8-1-0.2-2.3 1-2.4 0.7 0 1.5-0.2 2.1 0.2 0.1-0.4 0.5-0.9 1-0.9M50 14.6l0.2 0.1c1 0.2 1.5 1.6 2.6 1.1 0 0.7 0.1 1.4-0.1 1.9-0.3 0.8-1.2 0.8-1.9 0.8-6.7-0.4-10.6 2.4-14.7 4.8-1.1 0.7-2.3 1.2-3.2 2.1-4.3 4-9 7.7-10.1 15.1l-0.9 8.2c-0.1 0.9-1.1 1.8-0.9 2.9l0.7 4.9c-0.7-0.7-1.1 0.2-0.9 0.6 0.1 0.3 0.5 1.3 1.1 0.4 0.8 1.5 1.6 4.4 2.7 5.7 3.4 4 7.8 7.6 11.4 11.2 0.9-0.2 1.6-0.2 1.8-0.8 0.3 0.6-0.3 1.2-0.8 1.3 1.6 1 3.4 1.9 5.8 2.1 3.1 0.2 6 0.7 8.7 1.4 1.4-0.4 2.8-0.6 4.3-0.7 0.5 0 0.8-0.8 1.4-1l0.1-1c0.6 0.9 0.5-0.3 0.1-0.9 0.7 0.6 0.9 1.1 1.2 1.5 0-0.3 0.8-1.4 0.8-0.1l0.2-1.3c0.3-0.2 0.4 1.1 0.7 0.2 0.3-0.9 0.9-0.2 1.5-0.5-0.2 0.4-0.1 1.2 0.6 0.7l0.8-0.7c0.5 1.2 1.3 0.7 1.7 0.5 4.4-2.8 8.8-6.1 13-9.4l-0.1 1.3 0.5-1.6c0.5 0.5 0.9 0.1 1.1-0.2 0.6-1 1.4-2 2.7-2.9-1.6 4.3-3.5 7.7-5.9 10.5l-1 1.2c0 0.7-0.2 1.6-1 1.7-0.4 0.1-1.2-0.2-1.8 0.4-0.3 0.4 0.7 1.2-0.1 0.6-0.7-0.5-1.4 0-2.2 0.2-0.6 0.2 0.4 0.8 0.6 1.2 0.2 0.4 0.4 0.8 0.3 1.3l-1.1-1.2c-1.3 0.7-2.1 2-3.2 3-0.5 0.4-0.3 1.1-0.3 1.7-0.7 0-1.5-0.2-1.9 0.2-0.3 0.4-0.2 1-0.2 1.6-1-0.1-1.1-1.6-2-1.3-0.9 0.2-1.9 0.3-2.7 0.8 0.6 1.2-1 0.5-0.8 0.7-1.5-0.9-2.8-1.6-4.4-1-3.4-1.1-7.6-0.6-10.7-0.2 0-0.5 0.1-1-0.1-1.1-0.2 0.5-0.8 0.3-0.7 0.3-1.9-1.3-3.8-2.1-5.8-3.2-1.8 0.2-3.5-0.7-4-1.2-1.4-1.3-3-0.6-4.3-0.9-2.8-0.7-3.8-3.6-4.1-5.6-0.2-1-1-1.4-1.3-1.3-1.3-4.2-3.3-8-4.9-11.9-0.4-1-0.3-2-0.3-3.1 0.5 0.2 1 0.1 0.9-0.6-0.5-3.3-1.7-5.8-3-8.2 0.7-3.4 0.8-7.4 2.4-10.4 1.4-2.7 4-4.1 5.8-6.4 0.6-0.8 0.6-1.9 1.2-2.6 2-2 4-4.1 6.2-5.9 1-0.8 2.2 0 3.7-0.3 0.5-1.8 2.5-3.4 4.4-2.9 0.8 0.2 2.4-1.9 2.9-2.1 0.8-0.3 0.4 0.8 0.4 1.5 1.9-1.5 4.5-2.3 6.9-3.2" fill="#836fff" fill-rule="nonzero" stroke="none" stroke-width="1" stroke-linecap="butt" stroke-linejoin="miter" stroke-miterlimit="10" stroke-dasharray="" stroke-dashoffset="0" font-family="none" font-weight="none" font-size="none" text-anchor="none" style="mix-blend-mode: normal" data-fill-palette-color="tertiary"></path></g><g transform="matrix(1,0,0,1,64,121.60453121432568)"><svg viewBox="0 0 192 116.79093757134865" height="116.79093757134865" width="192"><g><svg viewBox="0 0 192 116.79093757134865" height="116.79093757134865" width="192"><g><svg viewBox="0 0 192 116.79093757134865" height="116.79093757134865" width="192"><g transform="matrix(1,0,0,1,0,70.59060181309458)"><svg viewBox="0 0 192 46.20033575825406" height="46.20033575825406" width="192"><g id="textblocktransform"><svg viewBox="0 0 192 46.20033575825406" height="46.20033575825406" width="192" id="textblock"><g><svg viewBox="0 0 192 46.20033575825406" height="46.20033575825406" width="192"><g transform="matrix(1,0,0,1,0,0)"><svg width="192" viewBox="4.45 -32.9 178.68 43" height="46.20033575825406" data-palette-color="#836fff"><path d="M25.75-15.55L25.75-15.55 25.75-15.55Q25.75-9.3 22.75-6.08 19.75-2.85 13.9-2.85L13.9-2.85Q12.45-2.85 11.08-2.95 9.7-3.05 8.5-3.35L8.5-3.35 8.5-27.15Q9.5-27.35 10.7-27.45 11.9-27.55 13.45-27.55L13.45-27.55Q16.85-27.55 19.63-26.33 22.4-25.1 24.08-22.48 25.75-19.85 25.75-15.55ZM29.9-15.55L29.9-15.55 29.9-15.55Q29.9-20.7 27.83-24.1 25.75-27.5 22.08-29.23 18.4-30.95 13.5-30.95L13.5-30.95Q11.55-30.95 9.6-30.8 7.65-30.65 6.1-30.15L6.1-30.15Q5.3-29.9 4.88-29.48 4.45-29.05 4.45-28.25L4.45-28.25 4.45-2.55Q4.45-0.9 6.55-0.25L6.55-0.25Q8.35 0.3 10.38 0.43 12.4 0.55 13.95 0.55L13.95 0.55Q18.8 0.55 22.38-1.2 25.95-2.95 27.93-6.53 29.9-10.1 29.9-15.55ZM36-30.4L36-30.4 36-30.4Q36-31.45 36.75-32.18 37.5-32.9 38.6-32.9L38.6-32.9Q39.75-32.9 40.45-32.18 41.15-31.45 41.15-30.4L41.15-30.4Q41.15-29.35 40.45-28.63 39.75-27.9 38.6-27.9L38.6-27.9Q37.5-27.9 36.75-28.63 36-29.35 36-30.4ZM36.6-1.55L36.6-13.2 40.6-13.2 40.6-0.1Q40.35 0 39.85 0.13 39.35 0.25 38.75 0.25L38.75 0.25Q37.7 0.25 37.15-0.18 36.6-0.6 36.6-1.55L36.6-1.55ZM40.6-21.5L40.6-11.25 36.6-11.25 36.6-23Q36.85-23.1 37.37-23.23 37.9-23.35 38.5-23.35L38.5-23.35Q39.55-23.35 40.07-22.93 40.6-22.5 40.6-21.5L40.6-21.5ZM58-0.7L58-0.7 58-0.7Q55.1-0.7 52.65-1.83 50.2-2.95 48.7-5.5 47.2-8.05 47.2-12.25L47.2-12.25Q47.2-16.05 48.67-18.6 50.15-21.15 52.75-22.45 55.35-23.75 58.7-23.75L58.7-23.75Q61-23.75 62.92-23.18 64.85-22.6 66.15-21.75L66.15-21.75Q66.9-21.25 67.37-20.63 67.85-20 67.85-19.1L67.85-19.1 67.85-3.65 63.85-3.65 63.85-19.05Q63-19.6 61.72-20.03 60.45-20.45 58.7-20.45L58.7-20.45Q55.35-20.45 53.3-18.4 51.25-16.35 51.25-12.3L51.25-12.3Q51.25-7.8 53.32-5.9 55.4-4 58.45-4L58.45-4Q60.65-4 62-4.75 63.35-5.5 64.15-6.4L64.15-6.4 64.35-2.85Q63.6-2.05 61.97-1.38 60.35-0.7 58-0.7ZM63.85 0.75L63.85 0.75 63.85-4.5 67.85-4.5 67.85 1Q67.85 4.3 66.42 6.3 65 8.3 62.52 9.2 60.05 10.1 56.95 10.1L56.95 10.1Q54.45 10.1 52.65 9.55 50.85 9 50.2 8.65L50.2 8.65Q48.7 7.8 48.7 6.5L48.7 6.5Q48.7 5.8 49.02 5.33 49.35 4.85 49.85 4.6L49.85 4.6Q50.9 5.4 52.82 6.08 54.75 6.75 56.95 6.75L56.95 6.75Q60.3 6.75 62.07 5.3 63.85 3.85 63.85 0.75ZM74.89-30.4L74.89-30.4 74.89-30.4Q74.89-31.45 75.64-32.18 76.39-32.9 77.49-32.9L77.49-32.9Q78.64-32.9 79.34-32.18 80.04-31.45 80.04-30.4L80.04-30.4Q80.04-29.35 79.34-28.63 78.64-27.9 77.49-27.9L77.49-27.9Q76.39-27.9 75.64-28.63 74.89-29.35 74.89-30.4ZM75.49-1.55L75.49-13.2 79.49-13.2 79.49-0.1Q79.24 0 78.74 0.13 78.24 0.25 77.64 0.25L77.64 0.25Q76.59 0.25 76.04-0.18 75.49-0.6 75.49-1.55L75.49-1.55ZM79.49-21.5L79.49-11.25 75.49-11.25 75.49-23Q75.74-23.1 76.27-23.23 76.79-23.35 77.39-23.35L77.39-23.35Q78.44-23.35 78.97-22.93 79.49-22.5 79.49-21.5L79.49-21.5ZM105.29-7.9L105.29-7.9 105.29-7.9Q104.94-7.65 104.37-7.45 103.79-7.25 103.09-7.25L103.09-7.25Q102.29-7.25 101.67-7.5 101.04-7.75 100.79-8.3L100.79-8.3Q98.14-13.9 96.17-18.55 94.19-23.2 92.99-26.25L92.99-26.25 92.79-26.25Q92.64-22.5 92.47-19.25 92.29-16 92.09-12.98 91.89-9.95 91.72-6.78 91.54-3.6 91.29 0L91.29 0Q90.99 0.1 90.52 0.2 90.04 0.3 89.49 0.3L89.49 0.3Q88.39 0.3 87.94-0.18 87.49-0.65 87.49-1.45L87.49-1.45Q87.49-2.05 87.62-4.23 87.74-6.4 87.92-9.55 88.09-12.7 88.34-16.28 88.59-19.85 88.87-23.33 89.14-26.8 89.39-29.6L89.39-29.6Q89.79-29.95 90.54-30.25 91.29-30.55 92.24-30.55L92.24-30.55Q93.39-30.55 94.19-30.1 94.99-29.65 95.44-28.7L95.44-28.7Q96.74-26.15 98.04-23.15 99.34-20.15 100.59-17.15 101.84-14.15 102.99-11.5L102.99-11.5 103.19-11.5Q105.39-16.8 107.57-21.7 109.74-26.6 111.24-30.05L111.24-30.05Q111.69-30.3 112.39-30.43 113.09-30.55 113.69-30.55L113.69-30.55Q114.84-30.55 115.52-30.18 116.19-29.8 116.39-28.95L116.39-28.95Q116.59-28.1 116.84-26.05 117.09-24 117.34-21.23 117.59-18.45 117.81-15.4 118.04-12.35 118.24-9.4 118.44-6.45 118.62-4.08 118.79-1.7 118.84-0.3L118.84-0.3Q118.39 0 117.89 0.15 117.39 0.3 116.74 0.3L116.74 0.3Q115.99 0.3 115.42-0.08 114.84-0.45 114.74-1.45L114.74-1.45Q114.44-6.3 114.17-11.03 113.89-15.75 113.69-19.7 113.49-23.65 113.34-26.15L113.34-26.15 113.14-26.15Q112.04-23.4 110.14-19.07 108.24-14.75 105.29-7.9ZM134.54-2.6L134.54-2.6 134.54-2.6Q136.64-2.6 138.01-3.03 139.39-3.45 139.99-3.85L139.99-3.85 139.99-11.1 133.79-10.45Q131.19-10.25 129.94-9.3 128.69-8.35 128.69-6.55L128.69-6.55Q128.69-4.7 130.16-3.65 131.64-2.6 134.54-2.6ZM134.49-23.75L134.49-23.75 134.49-23.75Q138.84-23.75 141.39-21.8 143.94-19.85 143.94-15.65L143.94-15.65 143.94-3.8Q143.94-2.7 143.51-2.13 143.09-1.55 142.24-1.05L142.24-1.05Q141.04-0.4 139.04 0.15 137.04 0.7 134.54 0.7L134.54 0.7Q129.84 0.7 127.26-1.15 124.69-3 124.69-6.5L124.69-6.5Q124.69-9.75 126.86-11.48 129.04-13.2 132.89-13.55L132.89-13.55 139.99-14.25 139.99-15.65Q139.99-18.15 138.49-19.3 136.99-20.45 134.44-20.45L134.44-20.45Q132.39-20.45 130.51-19.85 128.64-19.25 127.19-18.5L127.19-18.5Q126.79-18.85 126.46-19.33 126.14-19.8 126.14-20.3L126.14-20.3Q126.14-21.6 127.59-22.3L127.59-22.3Q128.94-23 130.71-23.38 132.49-23.75 134.49-23.75ZM155.24-18.8L155.24-18.8 155.24-10.9 151.24-10.9 151.24-18.5Q151.24-19.65 151.66-20.33 152.09-21 153.09-21.65L153.09-21.65Q154.39-22.5 156.64-23.13 158.89-23.75 161.64-23.75L161.64-23.75Q165.64-23.75 165.64-21.75L165.64-21.75Q165.64-21.25 165.49-20.83 165.34-20.4 165.09-20.1L165.09-20.1Q164.59-20.2 163.79-20.3 162.99-20.4 162.19-20.4L162.19-20.4Q159.89-20.4 158.14-19.93 156.39-19.45 155.24-18.8ZM151.24-1.55L151.24-13.2 155.24-12.6 155.24-0.1Q154.99 0 154.49 0.13 153.99 0.25 153.39 0.25L153.39 0.25Q152.34 0.25 151.79-0.18 151.24-0.6 151.24-1.55L151.24-1.55ZM170.38-6.05L170.38-13.2 174.38-13.2 174.38-6.3Q174.38-4.3 175.53-3.48 176.68-2.65 178.68-2.65L178.68-2.65Q179.53-2.65 180.58-2.95 181.63-3.25 182.33-3.65L182.33-3.65Q182.63-3.35 182.88-2.9 183.13-2.45 183.13-1.85L183.13-1.85Q183.13-0.75 181.83-0.05 180.53 0.65 178.23 0.65L178.23 0.65Q174.73 0.65 172.56-0.9 170.38-2.45 170.38-6.05L170.38-6.05ZM181.53-19.3L172.43-19.3 172.43-22.6 182.58-22.6Q182.73-22.4 182.88-21.95 183.03-21.5 183.03-21L183.03-21Q183.03-20.2 182.63-19.75 182.23-19.3 181.53-19.3L181.53-19.3ZM174.38-28.35L174.38-11.7 170.38-11.7 170.38-29.8Q170.63-29.9 171.16-30.03 171.68-30.15 172.28-30.15L172.28-30.15Q173.33-30.15 173.86-29.73 174.38-29.3 174.38-28.35L174.38-28.35Z" opacity="1" transform="matrix(1,0,0,1,0,0)" fill="#836fff" class="wordmark-text-0" data-fill-palette-color="primary" id="text-0"></path></svg></g></svg></g></svg></g></svg></g><g transform="matrix(1,0,0,1,60.597543573622445,0)"><svg viewBox="0 0 70.80491285275511 63.84886401790712" height="63.84886401790712" width="70.80491285275511"><g><svg xmlns="http://www.w3.org/2000/svg" xmlns:xlink="http://www.w3.org/1999/xlink" xmlns:a="http://ns.adobe.com/AdobeSVGViewerExtensions/3.0/" version="1.1" x="0" y="0" viewBox="0 0 38.126 34.38040796136655" enable-background="new -1 -3.211 40 40" xml:space="preserve" height="63.84886401790712" width="70.80491285275511" class="icon-icon-0" data-fill-palette-color="accent" id="icon-0"><path d="M17.425 34.307C18.336 34.307 19.064 33.98 19.68 33.361 20.299 32.743 20.628 31.979 20.628 31.106A3.13 3.13 0 0 0 19.68 28.814C19.064 28.197 18.335 27.868 17.425 27.868 16.517 27.868 15.753 28.197 15.134 28.814 14.515 29.432 14.223 30.198 14.223 31.106 14.223 31.979 14.515 32.743 15.134 33.361A3.13 3.13 0 0 0 17.425 34.307" fill="#836fff" data-fill-palette-color="accent"></path><path d="M28.74 34.38C27.832 34.38 27.103 34.052 26.484 33.434A3.1 3.1 0 0 1 25.539 31.178C25.539 30.27 25.866 29.505 26.484 28.887 27.103 28.269 27.832 27.941 28.74 27.941 29.65 27.941 30.414 28.269 31.033 28.887 31.651 29.505 31.941 30.27 31.941 31.178 31.941 32.051 31.651 32.816 31.033 33.434A3.13 3.13 0 0 1 28.74 34.38" fill="#836fff" data-fill-palette-color="accent"></path><polygon points="4.838,0 0,0 13.533,27.285 32.195,27.285 38.126,13.17 12.078,13.17 4.838,0 " fill="#836fff" data-fill-palette-color="accent"></polygon></svg></g></svg></g><g></g></svg></g></svg></g></svg></g></svg></g><defs></defs></svg><rect width="320" height="360" fill="none" stroke="none" visibility="hidden"></rect></g></svg></g></svg>