<svg xmlns="http://www.w3.org/2000/svg" viewBox="0 0 57.189 51.57" width="500" height="500" xml:space="preserve" class="icon-icon-0" data-fill-palette-color="accent">
  <rect width="100%" height="100%" fill="#fff"/>
  <path d="M26.956 42.902c.911 0 1.639-.327 2.255-.946.619-.618.948-1.382.948-2.255a3.13 3.13 0 0 0-.948-2.292c-.616-.617-1.345-.946-2.255-.946-.908 0-1.672.329-2.291.946-.619.618-.911 1.384-.911 2.292 0 .873.292 1.637.911 2.255a3.13 3.13 0 0 0 2.291.946m11.315.073c-.908 0-1.637-.328-2.256-.946a3.1 3.1 0 0 1-.945-2.256c0-.908.327-1.673.945-2.291.619-.618 1.348-.946 2.256-.946.91 0 1.674.328 2.293.946.618.618.908 1.383.908 2.291 0 .873-.29 1.638-.908 2.256a3.13 3.13 0 0 1-2.293.946M14.369 8.595H9.531L23.064 35.88h18.662l5.931-14.115H21.609z" fill="#836fff"/>
</svg>
